<?xml version="1.0" encoding="UTF-8"?>
<svg version="1.1" xmlns="http://www.w3.org/2000/svg" width="1024" height="1024">
<path d="M0 0 C337.92 0 675.84 0 1024 0 C1024 337.92 1024 675.84 1024 1024 C686.08 1024 348.16 1024 0 1024 C0 686.08 0 348.16 0 0 Z " fill="#000000" transform="translate(0,0)"/>
<path d="M0 0 C1.03279884 -0.00327219 2.06559768 -0.00654439 3.12969345 -0.00991574 C4.82507731 -0.0076903 4.82507731 -0.0076903 6.55471134 -0.00541991 C7.76377299 -0.00777214 8.97283465 -0.01012437 10.21853453 -0.01254788 C13.58624395 -0.01807267 16.9539013 -0.01910949 20.32161164 -0.01827047 C23.98113598 -0.01843997 27.64065178 -0.02434608 31.30017185 -0.02951133 C38.56372427 -0.03884058 45.8272706 -0.04275993 53.09082826 -0.0450303 C61.78908787 -0.04799153 70.48733938 -0.05668847 79.18559474 -0.06544458 C100.21084364 -0.08629323 121.23609395 -0.09675942 142.26135078 -0.10557419 C152.206785 -0.10978008 162.15221862 -0.11500215 172.09765233 -0.12025872 C206.13834521 -0.13814923 240.17903827 -0.15314552 274.21973515 -0.16057891 C276.35700397 -0.16105366 278.49427279 -0.16152955 280.63154161 -0.16200657 C281.69144015 -0.16224294 282.75133869 -0.16247932 283.84335537 -0.16272286 C289.21337299 -0.16392406 294.58339062 -0.16513951 299.95340824 -0.16636485 C301.01910647 -0.166605 302.08480469 -0.16684515 303.18279681 -0.16709258 C337.73732461 -0.17498597 372.29181808 -0.19841846 406.8463309 -0.23092079 C443.37455636 -0.26521692 479.90276174 -0.28492984 516.43100357 -0.28822315 C520.440842 -0.28864069 524.45068042 -0.28912025 528.46051884 -0.28964633 C529.44786243 -0.28976952 530.43520602 -0.28989271 531.45246912 -0.29001964 C547.34328263 -0.29235192 563.23405629 -0.30801346 579.1248556 -0.32848817 C595.0975209 -0.34874187 611.07013832 -0.35422562 627.04281408 -0.34471754 C636.53163232 -0.33950083 646.02029119 -0.34538811 655.50908651 -0.36725221 C661.85047757 -0.38075955 668.19175892 -0.37968388 674.53315107 -0.36685025 C678.14440402 -0.35995319 681.75535225 -0.35928512 685.36657798 -0.37641034 C689.26362391 -0.39473987 693.16022514 -0.38187457 697.05729008 -0.36618346 C698.16881665 -0.37640567 699.28034323 -0.38662787 700.42555243 -0.39715984 C712.22447153 -0.29354766 722.4920581 2.8473623 731.80936527 10.12880117 C732.42295902 10.56837148 733.03655277 11.00794179 733.66874027 11.46083242 C742.67324294 18.37358114 748.52921247 30.12845222 750.80936527 41.12880117 C750.90085496 43.09443919 750.93668052 45.06293204 750.93799973 47.03069764 C750.94283639 48.85265099 750.94283639 48.85265099 750.94777077 50.71141148 C750.94629959 52.06116872 750.94473187 53.41092585 750.94307804 54.76068288 C750.94494586 56.193152 750.94724645 57.62562062 750.94994336 59.05808842 C750.95607152 62.999429 750.95592657 66.9407484 750.95474899 70.88209265 C750.95454523 75.13104461 750.96006139 79.37998972 750.96480656 83.6289385 C750.97311968 91.95603451 750.97586171 100.28312344 750.97641893 108.61022326 C750.97689387 115.37921714 750.97894747 122.14820868 750.98211956 128.91720182 C750.99092862 148.10543933 750.99553865 167.29367124 750.99478909 186.48191079 C750.99472915 188.03418329 750.99472915 188.03418329 750.99466801 189.61781484 C750.99460669 191.17198155 750.99460669 191.17198155 750.99454413 192.75754557 C750.99413778 209.54479003 751.00370377 226.33201205 751.01780637 243.11925002 C751.03217008 260.35324084 751.03907653 277.5872207 751.0382126 294.82121766 C751.03788058 304.49792492 751.0406295 314.17460867 751.05139065 323.85131055 C751.06049566 332.09169378 751.06267095 340.33204283 751.05588122 348.5724289 C751.05261578 352.77602371 751.05256018 356.97955296 751.06123447 361.18314153 C751.0690995 365.0342231 751.067668 368.88518712 751.05895034 372.73626582 C751.05741534 374.12660726 751.05923153 375.51695748 751.06481042 376.90728857 C751.12792838 393.75841889 747.62999323 407.01610993 735.70780277 419.29286367 C724.51816443 429.84987228 711.60065643 433.60276285 696.48445892 433.50353128 C695.27349479 433.507592 694.06253065 433.51165273 692.81487063 433.51583651 C689.46499635 433.52404647 686.11563396 433.51888988 682.76580011 433.50800247 C679.11714989 433.49946743 675.46853461 433.50839349 671.81988627 433.51506662 C665.42894479 433.52435291 659.03808199 433.52251144 652.64714146 433.5133341 C643.14362156 433.49972463 633.64016202 433.50330287 624.13663773 433.5102927 C607.16325455 433.52221776 590.18990851 433.51713533 573.21652737 433.50501442 C558.36349882 433.49447984 543.51048293 433.48993873 528.65745068 433.49130994 C527.17982259 433.49143599 527.17982259 433.49143599 525.67234344 433.49156458 C521.67361127 433.49191682 517.6748791 433.49230083 513.67614693 433.49273016 C476.16310132 433.49669546 438.65007808 433.48397599 401.13703887 433.46320359 C367.8040945 433.44483264 334.47117158 433.43902167 301.13822269 433.444475 C298.99779341 433.44482143 296.85736413 433.44516753 294.71693485 433.44551329 C293.65875033 433.44568428 292.6005658 433.44585528 291.51031508 433.44603145 C286.18362436 433.44688499 280.85693365 433.44770877 275.53024292 433.44850045 C274.47938258 433.44865753 273.42852224 433.44881462 272.34581765 433.44897646 C244.49751815 433.45296574 216.64922071 433.44749199 188.80092245 433.43898916 C185.80472826 433.43808212 182.80853407 433.43717647 179.81233987 433.43627393 C177.82472337 433.43567282 175.83710687 433.4350642 173.84949037 433.43444802 C159.98846239 433.43022538 146.12743847 433.42964892 132.26641005 433.43155352 C114.40521558 433.43399551 96.54404286 433.42993249 78.68285435 433.41434351 C69.23543275 433.40628817 59.78804737 433.4036955 50.3406236 433.40898587 C44.03209917 433.41196011 37.7236068 433.40766981 31.41509004 433.39743729 C27.8194894 433.39180468 24.22396269 433.3893149 20.62836146 433.39560387 C16.75500847 433.40229704 12.88177763 433.39354521 9.00843048 433.38327676 C7.89263812 433.38767325 6.77684577 433.39206973 5.62724152 433.39659944 C-9.17344755 433.3215699 -21.10076798 428.93050735 -31.93672848 418.54676992 C-44.2223129 405.36691418 -46.34143261 392.52439649 -46.33780575 375.15634328 C-46.3411084 373.72342267 -46.34483481 372.29050299 -46.34894723 370.85758448 C-46.35892926 366.92881817 -46.36267786 363.00006714 -46.36533654 359.07128996 C-46.36925075 354.83051017 -46.37882809 350.58974235 -46.3875494 346.34897023 C-46.40727939 336.11370322 -46.41737432 325.87843526 -46.42627719 315.643154 C-46.43066462 310.81963013 -46.43603014 305.99610736 -46.44126606 301.17258435 C-46.45827271 285.13336872 -46.47276713 269.09415377 -46.4800148 253.05493051 C-46.48192459 248.89604168 -46.48384494 244.73715286 -46.48580074 240.57826406 C-46.48628448 239.54463635 -46.48676822 238.51100865 -46.48726662 237.44605889 C-46.49556803 220.69980646 -46.52090936 203.95362543 -46.55338142 187.20740417 C-46.58646779 170.0038144 -46.60446488 152.80026091 -46.60765904 135.59663916 C-46.60982236 125.94164307 -46.61854533 116.2867512 -46.64412022 106.63178617 C-46.66584852 98.41020207 -46.67386704 90.18874753 -46.66415343 81.96713797 C-46.6596153 77.77522479 -46.6614666 73.58357883 -46.68091488 69.39170247 C-46.69859388 65.54787344 -46.69751092 61.70450562 -46.68201759 57.86067136 C-46.67853373 55.82488869 -46.6946321 53.7891009 -46.71162206 51.75338614 C-46.61089403 37.29375795 -41.69884021 24.55973639 -31.94063473 13.78505117 C-23.15413545 5.46925721 -12.20328268 0.01014941 0 0 Z " fill="#F5A000" transform="translate(160.19063472747803,461.87119883298874)"/>
<path d="M0 0 C1.5017981 -0.01522705 1.5017981 -0.01522705 3.03393555 -0.03076172 C18.72114823 0.15211195 31.06594813 5.80289293 42.22265625 16.6328125 C45.43990863 20.03485552 47.69392992 23.30904592 49.875 27.4375 C50.390625 26.7775 50.90625 26.1175 51.4375 25.4375 C52.6440625 23.9525 52.6440625 23.9525 53.875 22.4375 C54.36097656 21.82132813 54.84695313 21.20515625 55.34765625 20.5703125 C64.29309733 9.70043847 76.94285114 2.54491709 90.875 0.4375 C94.98347873 0.14446135 99.06980503 0.11251457 103.1875 0.125 C104.23873047 0.10888672 105.28996094 0.09277344 106.37304688 0.07617188 C121.08234281 0.06713113 135.36434576 4.51645077 146.32421875 14.71484375 C156.68923839 26.22863131 161.4819715 39.3754971 163.875 54.4375 C164.37128906 53.31472656 164.86757813 52.19195312 165.37890625 51.03515625 C169.11666946 42.73982302 172.78502372 35.29385532 178.875 28.4375 C180.03708984 26.98537109 180.03708984 26.98537109 181.22265625 25.50390625 C193.30631067 11.0184754 213.39408039 2.33162984 231.875 0.4375 C255.42621152 -1.14672564 279.26269921 0.40666908 297.90039062 16.46777344 C313.54099136 30.78677322 320.91830226 47.74061579 323.875 68.4375 C323.875 76.6875 323.875 84.9375 323.875 93.4375 C283.285 93.4375 242.695 93.4375 200.875 93.4375 C205.18320491 107.43916596 209.17652608 116.76480771 221.7734375 124.1328125 C230.18130954 128.51676593 237.64737291 130.82561062 247.125 130.75 C247.86371338 130.74508545 248.60242676 130.7401709 249.36352539 130.73510742 C264.94922833 130.40529602 277.06820199 124.54994483 287.875 113.4375 C288.205 112.7775 288.535 112.1175 288.875 111.4375 C292.03981225 112.90158695 294.71081085 114.68552046 297.5 116.7734375 C298.37140625 117.42570312 299.2428125 118.07796875 300.140625 118.75 C301.04296875 119.430625 301.9453125 120.11125 302.875 120.8125 C303.77734375 121.48539062 304.6796875 122.15828125 305.609375 122.8515625 C306.48078125 123.50640625 307.3521875 124.16125 308.25 124.8359375 C309.04148437 125.43067871 309.83296875 126.02541992 310.6484375 126.63818359 C312.88357272 128.44442773 314.88188387 130.36986954 316.875 132.4375 C302.23385245 150.13869447 284.62516269 159.52604317 261.875 162.4375 C234.31613283 163.93246287 208.90718588 161.46055042 186.875 143.4375 C186.17117188 142.90769531 185.46734375 142.37789062 184.7421875 141.83203125 C175.09626143 134.17203113 166.85390665 121.35312662 163.875 109.4375 C163.545 125.6075 163.215 141.7775 162.875 158.4375 C149.675 158.4375 136.475 158.4375 122.875 158.4375 C122.85518066 155.65280273 122.83536133 152.86810547 122.81494141 149.99902344 C122.74781252 140.76294077 122.67017712 131.52696747 122.58747292 122.29101181 C122.53768458 116.69533481 122.49135391 111.09967511 122.453125 105.50390625 C122.4160505 100.09622214 122.36963242 94.68868921 122.31693649 89.28113556 C122.29850965 87.2256767 122.28335928 85.17018557 122.27165604 83.11467743 C122.82874732 60.19995409 122.82874732 60.19995409 112.9453125 40.33203125 C105.0227829 33.08216925 97.90257867 32.82085042 87.5625 33.06640625 C78.7153619 33.55888759 72.57624997 37.76494953 66.62890625 44.1328125 C59.77329302 53.14130204 57.58456624 63.82265418 57.55615234 74.8828125 C57.54610672 75.79106277 57.5360611 76.69931305 57.52571106 77.63508606 C57.49503726 80.61088478 57.4778881 83.5865942 57.4609375 86.5625 C57.44221313 88.63615682 57.42263878 90.70980612 57.4022522 92.78344727 C57.35105913 98.22161414 57.31136489 103.65980567 57.27410889 109.0980835 C57.22692554 115.63363363 57.16538288 122.16906259 57.10626221 128.70451355 C57.01820642 138.61545978 56.9483299 148.52638462 56.875 158.4375 C43.345 158.4375 29.815 158.4375 15.875 158.4375 C15.8656543 155.40522217 15.85630859 152.37294434 15.84667969 149.2487793 C15.81283194 139.20239325 15.75723953 129.15621092 15.69109726 119.10998821 C15.65167793 113.02212675 15.61946211 106.93440874 15.60400391 100.84643555 C15.58880104 94.96533827 15.55429049 89.08463552 15.50669098 83.20371437 C15.49191468 80.96601615 15.48396115 78.7282616 15.48311615 76.49051476 C15.80553407 60.45766296 15.80553407 60.45766296 10.875 45.4375 C10.32486237 44.39616158 10.32486237 44.39616158 9.76361084 43.33378601 C6.64999047 37.89273113 1.81361133 35.05712127 -4.125 33.4375 C-15.32830511 31.83997259 -25.77530583 32.52485726 -35.125 39.4375 C-42.80717615 45.98806929 -47.44580471 56.72299279 -48.3212471 66.66653442 C-48.40833204 69.1041531 -48.43765028 71.53544284 -48.44384766 73.97460938 C-48.45891609 75.35161514 -48.45891609 75.35161514 -48.47428894 76.75643921 C-48.5049669 79.7647036 -48.52211309 82.77287964 -48.5390625 85.78125 C-48.55778653 87.87732699 -48.57736086 89.97339654 -48.5977478 92.06945801 C-48.64894443 97.56680911 -48.68863678 103.06418461 -48.72589111 108.56164551 C-48.77307163 115.16811264 -48.83461584 121.77445987 -48.89373779 128.38082886 C-48.98179793 138.3996705 -49.05167135 148.41849093 -49.125 158.4375 C-62.655 158.4375 -76.185 158.4375 -90.125 158.4375 C-90.125 107.6175 -90.125 56.7975 -90.125 4.4375 C-77.255 4.4375 -64.385 4.4375 -51.125 4.4375 C-50.795 11.6975 -50.465 18.9575 -50.125 26.4375 C-49.114375 25.096875 -48.10375 23.75625 -47.0625 22.375 C-40.64620863 14.20415391 -34.67897962 8.79391383 -25.125 4.4375 C-24.21621094 4.02113281 -23.30742188 3.60476562 -22.37109375 3.17578125 C-14.95017295 0.35958627 -7.87691997 0.05669886 0 0 Z " fill="#FCFCFC" transform="translate(610.125,213.5625)"/>
<path d="M0 0 C1.56047445 0.00015913 3.12095416 0.00585397 4.68139648 0.01586914 C5.5012352 0.01728409 6.32107391 0.01869904 7.16575623 0.02015686 C9.79470406 0.0257725 12.42356797 0.0383276 15.05249023 0.05102539 C16.8304838 0.05603838 18.60847869 0.06060163 20.38647461 0.06469727 C24.75434569 0.07574701 29.12215371 0.09302208 33.48999023 0.11352539 C39.07282748 11.03105265 44.28278581 22.0804775 49.29876709 33.26895142 C51.36901998 37.88673869 53.44994347 42.49972067 55.52905273 47.11352539 C55.94772614 48.04344803 56.36639954 48.97337067 56.79776001 49.93147278 C60.78369093 58.77977058 64.81994385 67.60463814 68.86499023 76.42602539 C74.15275832 87.96378375 79.3796355 99.52630823 84.5534668 111.11572266 C87.49582252 117.69613896 90.46418355 124.26343483 93.46655273 130.81665039 C93.98261078 131.94321045 93.98261078 131.94321045 94.50909424 133.0925293 C96.16816797 136.71232652 97.83001022 140.33082141 99.49584961 143.94750977 C105.30978024 156.60989979 110.87556393 169.3534656 116.48999023 182.11352539 C116.81999023 146.14352539 117.14999023 110.17352539 117.48999023 73.11352539 C130.35999023 73.11352539 143.22999023 73.11352539 156.48999023 73.11352539 C156.81999023 80.37352539 157.14999023 87.63352539 157.48999023 95.11352539 C158.45936523 93.79352539 159.42874023 92.47352539 160.42749023 91.11352539 C169.2261433 79.93117348 181.13092311 71.37464987 195.48999023 69.11352539 C199.41096072 68.82026228 203.30920477 68.7798128 207.23999023 68.80102539 C208.30749512 68.80593994 209.375 68.81085449 210.47485352 68.81591797 C226.40700523 69.05332967 239.97028538 73.77725533 251.48999023 85.11352539 C262.36150836 98.027781 266.66401033 112.01376568 266.60351562 128.80053711 C266.60366165 129.86455246 266.60380768 130.92856781 266.60395813 132.02482605 C266.60326318 135.53097596 266.59549029 139.0370723 266.58764648 142.54321289 C266.58578082 144.97844412 266.58435762 147.41367573 266.58335876 149.84890747 C266.57954526 156.25053956 266.56972491 162.65214887 266.55865479 169.05377197 C266.5484156 175.58931164 266.54385577 182.12485501 266.53881836 188.66040039 C266.52810161 201.47812033 266.51051423 214.2958174 266.48999023 227.11352539 C253.28999023 227.11352539 240.08999023 227.11352539 226.48999023 227.11352539 C226.46811646 222.85345581 226.46811646 222.85345581 226.44580078 218.50732422 C226.39527803 209.08362439 226.32865244 199.66008673 226.25427532 190.23654652 C226.20970457 184.52766669 226.17041957 178.81885606 226.14355469 173.10986328 C226.11738857 167.59189782 226.07689336 162.07420051 226.02680397 156.55640221 C226.0102248 154.45991052 225.99865518 152.36337256 225.99237633 150.26682472 C226.20387782 127.07962115 226.20387782 127.07962115 214.94311523 107.52368164 C207.25512933 100.68771479 198.3590214 101.45374949 188.6652832 101.91821289 C184.30713096 102.30951724 181.07272946 103.68699925 177.48999023 106.11352539 C176.47098633 106.71487305 176.47098633 106.71487305 175.43139648 107.32836914 C167.18176927 112.70856081 162.60887681 121.12104693 160.13700867 130.45762634 C158.67608857 138.71237787 159.00400253 147.17275261 158.97827148 155.53149414 C158.96140319 157.6008662 158.94325009 159.67022815 158.9238739 161.73957825 C158.87660134 167.15305419 158.84664529 172.56648912 158.82043457 177.98010254 C158.78524147 184.49322086 158.72829404 191.00618178 158.6750412 197.51917267 C158.59679435 207.38393623 158.54598667 217.24849751 158.48999023 227.11352539 C135.05999023 227.11352539 111.62999023 227.11352539 87.48999023 227.11352539 C80.22999023 210.28352539 72.96999023 193.45352539 65.48999023 176.11352539 C31.16999023 175.78352539 -3.15000977 175.45352539 -38.51000977 175.11352539 C-38.84000977 176.76352539 -39.17000977 178.41352539 -39.51000977 180.11352539 C-40.53508462 182.79964713 -41.5948367 185.44359574 -42.71313477 188.09008789 C-43.03280212 188.85598236 -43.35246948 189.62187683 -43.68182373 190.41098022 C-44.3588754 192.03067272 -45.03814516 193.64943959 -45.71948242 195.26733398 C-46.7469668 197.70754911 -47.76777673 200.15046604 -48.78735352 202.59399414 C-49.44971879 204.17619087 -50.11246759 205.75822711 -50.77563477 207.34008789 C-51.22437958 208.41258286 -51.22437958 208.41258286 -51.68218994 209.50674438 C-54.18108117 215.43404109 -56.84484713 221.25016758 -59.51000977 227.11352539 C-75.35000977 227.11352539 -91.19000977 227.11352539 -107.51000977 227.11352539 C-102.01901297 214.91131028 -96.51947487 202.71597874 -90.94750977 190.55102539 C-90.25856372 189.04568293 -89.569682 187.54031104 -88.88085938 186.03491211 C-87.81537386 183.70638527 -86.74983011 181.37788524 -85.68403625 179.04949951 C-83.29298595 173.82580251 -80.90452209 168.60093018 -78.51782227 163.37524414 C-71.34378429 147.66906003 -64.1515781 131.9713928 -56.9385376 116.28308105 C-50.10344318 101.41584474 -43.29554216 86.53629601 -36.49794006 71.65188599 C-34.13843128 66.48637961 -31.77422392 61.32303862 -29.40844727 56.16040039 C-28.0461787 53.18657453 -26.68425556 50.21259067 -25.32250977 47.23852539 C-24.99257019 46.51810059 -24.66263062 45.79767578 -24.32269287 45.05541992 C-20.73502208 37.21845307 -17.16751545 29.37317162 -13.65063477 21.50415039 C-13.34506149 20.82057465 -13.03948822 20.1369989 -12.72465515 19.43270874 C-11.28092221 16.20068001 -9.84082622 12.96708795 -8.40576172 9.73120117 C-7.90520264 8.60697754 -7.40464355 7.48275391 -6.88891602 6.32446289 C-6.45135986 5.33752441 -6.01380371 4.35058594 -5.56298828 3.33374023 C-4.04393106 0.13079418 -4.04393106 0.13079418 0 0 Z " fill="#FCFCFC" transform="translate(196.510009765625,144.886474609375)"/>
<path d="M0 0 C13.53 0 27.06 0 41 0 C41.33 35.31 41.66 70.62 42 107 C45.3 103.7 48.6 100.4 52 97 C70.03038819 84.91369583 91.366261 80.90336752 112.73339844 85.02612305 C125.25738804 87.8806397 137.19871777 93.67132422 147 102 C147.99 102.7425 148.98 103.485 150 104.25 C162.81136671 115.29547563 171.15620103 133.52598442 174 150 C174.90596899 165.23152558 175.23857165 180.52093148 170 195 C169.63777344 196.05574219 169.27554688 197.11148438 168.90234375 198.19921875 C161.14856839 218.72701046 145.78162073 232.90641715 126.125 241.8125 C106.40726275 249.43188672 84.21977781 249.61403759 64.76953125 241.234375 C54.98153936 236.74746028 46.15194058 231.09417304 40 222 C40 221.34 40 220.68 40 220 C39.34 220 38.68 220 38 220 C38 227.26 38 234.52 38 242 C25.46 242 12.92 242 0 242 C0 162.14 0 82.28 0 0 Z " fill="#010100" transform="translate(621,558)"/>
<path d="M0 0 C13.53 0 27.06 0 41 0 C41.33 35.64 41.66 71.28 42 108 C44.97 104.7 47.94 101.4 51 98 C62.22409932 88.07724553 75.3614297 83.57984584 90.25 83.6875 C91.07701416 83.69313965 91.90402832 83.6987793 92.75610352 83.70458984 C109.15491469 84.02635379 122.74007331 89.61440579 134.3671875 101.13671875 C138.02691645 105.11680973 140.67261073 109.13505588 143 114 C143.56267578 115.13115234 143.56267578 115.13115234 144.13671875 116.28515625 C150.93316332 131.41924658 150.41098355 147.88404175 150.29296875 164.09375 C150.28736072 166.38016479 150.28309634 168.66658322 150.28010559 170.95300293 C150.26875183 176.91727983 150.23936801 182.88133113 150.20599365 188.84552002 C150.17508663 194.9529719 150.16155652 201.06046089 150.14648438 207.16796875 C150.11448768 219.1120933 150.06179902 231.05599244 150 243 C136.47 243 122.94 243 109 243 C108.970271 238.71636475 108.970271 238.71636475 108.93994141 234.34619141 C108.87288678 224.88657813 108.79524967 215.42707271 108.71247292 205.96758461 C108.66263215 200.2350873 108.61630131 194.50260733 108.578125 188.77001953 C108.54111752 183.23266865 108.49471625 177.6954673 108.44193649 172.15824509 C108.42347447 170.05089326 108.40833664 167.94350948 108.39665604 165.83610916 C108.37965271 162.87316993 108.35058492 159.91056712 108.31884766 156.94775391 C108.31668747 156.08603577 108.31452728 155.22431763 108.31230164 154.33648682 C108.16997921 143.863174 106.37741432 133.36975512 99.43359375 125.14453125 C92.28067861 118.42311447 84.02874832 117.39744897 74.4921875 117.6640625 C64.18746859 118.65534418 56.68318696 123.13467315 50 131 C43.84717409 140.57955504 41.7108 150.14085645 41.68115234 161.37524414 C41.66608391 162.70857788 41.66608391 162.70857788 41.65071106 164.06884766 C41.62009587 166.97427794 41.60290472 169.87961702 41.5859375 172.78515625 C41.56720839 174.81254347 41.5476337 176.83992303 41.5272522 178.86729431 C41.47610914 184.17885815 41.43638837 189.49044721 41.39910889 194.80212402 C41.35188583 201.18835555 41.2903649 207.57446367 41.23126221 213.96059418 C41.1432675 223.64034581 41.07334738 233.3200764 41 243 C27.47 243 13.94 243 0 243 C0 162.81 0 82.62 0 0 Z " fill="#030200" transform="translate(227,558)"/>
<path d="M0 0 C13.2 0 26.4 0 40 0 C40.05607422 9.70083984 40.05607422 9.70083984 40.11328125 19.59765625 C40.14359686 23.72203064 40.17476822 27.84636374 40.20898438 31.97070312 C40.2630807 38.5010354 40.31419841 45.03128603 40.34643555 51.56176758 C40.372658 56.83336123 40.41319091 62.10467686 40.46318626 67.37609673 C40.47972796 69.37603708 40.49132054 71.37602538 40.49761391 73.37602425 C40.09408103 96.60630869 40.09408103 96.60630869 49.71875 116.92578125 C55.87718275 122.82761263 62.02890516 125.09983653 70.5 125.3125 C80.72652992 124.95691829 89.10983584 122.38565331 96.82421875 115.33203125 C108.60922174 102.35962241 108.45898136 85.65793653 108.51171875 69.140625 C108.52859206 67.1399426 108.54674581 65.13927062 108.56611633 63.13861084 C108.61333455 57.91092184 108.6433254 52.68327514 108.66955566 47.45544434 C108.70478373 41.16256074 108.76171526 34.86983949 108.81494904 28.5770874 C108.89313196 19.05141312 108.94398774 9.52594652 109 0 C122.2 0 135.4 0 149 0 C149 50.82 149 101.64 149 154 C136.46 154 123.92 154 111 154 C110.67 146.08 110.34 138.16 110 130 C109.030625 131.485 108.06125 132.97 107.0625 134.5 C101.2610253 142.67271238 94.86652998 147.85254384 86 152.375 C85.34781494 152.70902832 84.69562988 153.04305664 84.02368164 153.38720703 C69.85156271 160.24303352 52.52600485 159.80570222 37.6640625 155.33203125 C23.65185374 150.23804064 13.27604257 141.42374897 6.5546875 128.14453125 C-0.2838315 112.64525315 -0.40981974 98.19529727 -0.29296875 81.54296875 C-0.28736434 79.18500541 -0.28309824 76.82703854 -0.28010559 74.46907043 C-0.26872337 68.30254244 -0.23931388 62.13623086 -0.20599365 55.9697876 C-0.17514916 49.66152879 -0.16156968 43.35323457 -0.14648438 37.04492188 C-0.11443724 24.69650484 -0.06172411 12.34830439 0 0 Z " fill="#000000" transform="translate(423,647)"/>
<path d="M0 0 C0.92586914 0.00829834 1.85173828 0.01659668 2.80566406 0.02514648 C16.66153633 0.36608345 25.95850212 5.16998257 35.4375 15.125 C46.19961821 28.03954185 48.13048528 43.24095648 46.75 59.4375 C45.18096667 68.04043844 41.70773055 75.28793069 36.75 82.4375 C35.6671875 84.0153125 35.6671875 84.0153125 34.5625 85.625 C25.20297128 94.98452872 13.56213634 99.54487401 0.4375 99.625 C-13.07391216 99.47180939 -23.13024233 95.16451196 -32.9921875 85.828125 C-43.10224779 75.12335528 -47.82994046 61.76586566 -47.421875 47.13671875 C-46.56886752 33.74062405 -40.66279374 20.3362589 -30.60546875 11.265625 C-21.05854293 3.85607063 -12.1085482 -0.13964635 0 0 Z " fill="#F4A001" transform="translate(707.25,673.5625)"/>
<path d="M0 0 C13.2 0 26.4 0 40 0 C40 50.82 40 101.64 40 154 C26.8 154 13.6 154 0 154 C0 103.18 0 52.36 0 0 Z " fill="#FDFDFD" transform="translate(471,218)"/>
<path d="M0 0 C2.90024299 2.90024299 3.96006748 6.51679684 5.43994141 10.2734375 C5.78160843 11.12883118 6.12327545 11.98422485 6.47529602 12.86553955 C7.60586345 15.70000789 8.72886157 18.53740758 9.8515625 21.375 C10.63305747 23.3404733 11.4149123 25.30580356 12.19711304 27.27099609 C13.83618278 31.39226242 15.47165677 35.51493168 17.10449219 39.63867188 C19.20149893 44.93416608 21.30614478 50.22658268 23.41332436 55.51803589 C25.02870539 59.57634078 26.64066107 63.63599901 28.25150681 67.69610596 C29.02649705 69.64858386 29.80241925 71.60069209 30.57927322 73.5524292 C31.66252904 76.27580847 32.74131809 79.00091345 33.81884766 81.7265625 C34.14298141 82.53909485 34.46711517 83.3516272 34.80107117 84.18878174 C37 89.77125341 37 89.77125341 37 92 C12.58 92 -11.84 92 -37 92 C-33.62491181 81.87473542 -33.62491181 81.87473542 -32.0456543 78.01977539 C-31.69019028 77.14805695 -31.33472626 76.2763385 -30.9684906 75.37820435 C-30.40207603 74.00183304 -30.40207603 74.00183304 -29.82421875 72.59765625 C-29.42191544 71.61352753 -29.01961212 70.6293988 -28.6051178 69.615448 C-27.30206411 66.42996946 -25.99486109 63.24621284 -24.6875 60.0625 C-23.78851472 57.86735989 -22.88975321 55.67212813 -21.99121094 53.47680664 C-19.3319135 46.98271221 -16.66691345 40.49096995 -14 34 C-13.60983704 33.05024292 -13.21967407 32.10048584 -12.81768799 31.12194824 C-8.55396797 20.74431494 -4.28237165 10.36995093 0 0 Z " fill="#030303" transform="translate(210,194)"/>
<path d="M0 0 C1.38022339 0.0146228 1.38022339 0.0146228 2.78833008 0.02954102 C13.82882143 0.31779174 21.27269514 3.04929596 29.328125 10.796875 C36.19052123 18.90697964 38.5625 27.01558965 38.5625 37.4375 C11.1725 37.4375 -16.2175 37.4375 -44.4375 37.4375 C-43.26917356 26.92256207 -40.44679707 18.20274571 -32.41015625 10.9609375 C-22.48349517 3.2948032 -12.52368951 -0.14885801 0 0 Z " fill="#050505" transform="translate(855.4375,242.5625)"/>
<path d="M0 0 C4.70642629 3.39234065 7.74443822 7.36612716 9.57421875 12.85546875 C10.23681587 20.18748602 10.32865194 26.90243895 5.57421875 32.85546875 C-0.92713739 39.04656494 -7.31526898 41.98890176 -16.23828125 42.35546875 C-24.11256982 42.15484993 -29.63190761 40.23251084 -35.5234375 34.98828125 C-40.50298029 29.73266524 -42.11389822 25.13024062 -42.80078125 17.91796875 C-42.60485038 12.2795136 -40.41787317 8.01608906 -36.625 3.90234375 C-25.84849011 -6.05808093 -12.94037034 -7.2735593 0 0 Z " fill="#FBFBFB" transform="translate(507.42578125,147.14453125)"/>
<path d="M0 0 C0.33 0 0.66 0 1 0 C1 34.32 1 68.64 1 104 C2.98 103.01 2.98 103.01 5 102 C3.7191375 105.64553172 2.83328987 107.16671013 0 110 C0 73.7 0 37.4 0 0 Z " fill="#FEB01F" transform="translate(268,558)"/>
<path d="M0 0 C-1.59092052 4.13639336 -4.60474918 7.23213248 -8 10 C-8.66 10 -9.32 10 -10 10 C-10.28875 10.804375 -10.5775 11.60875 -10.875 12.4375 C-12 15 -12 15 -14 16 C-12.4806381 10.59782434 -8.74948147 6.99165288 -5 3 C-4.47277344 2.42507813 -3.94554687 1.85015625 -3.40234375 1.2578125 C-2 0 -2 0 0 0 Z " fill="#F7AB19" transform="translate(681,683)"/>
<path d="M0 0 C0.33 0.99 0.66 1.98 1 3 C-3 7 -7 11 -11 15 C-9.2645544 8.82952674 -4.42122925 4.42122925 0 0 Z " fill="#F7AA18" transform="translate(284,681)"/>
</svg>
